{"title":"NOVA S44E04 Super Tunnel 720p HDTV HEVC 2CH x265","uid":16033008,"size":427546520,"categoryP":"video","categoryS":"hd___tv_shows","magnet":"?xt=urn:btih:418f7c44668ae3e0cb412b31f667d0acc5a8e471&amp;dn=NOVA+S44E04+Super+Tunnel+720p+HDTV+HEVC+2CH+x265&amp;tr=udp%3A%2F%2Ftracker.leechers-paradise.org%3A6969&amp;tr=udp%3A%2F%2Fzer0day.ch%3A1337&amp;tr=udp%3A%2F%2Fopen.demonii.com%3A1337&amp;tr=udp%3A%2F%2Ftracker.coppersurfer.tk%3A6969&amp;tr=udp%3A%2F%2Fexodus.desync.com%3A6969","seeders":13,"leechers":4,"uploader":"nayhtut","files":1,"time":1476448076,"description":"Source: NOVA S44E04 Super Tunnel 720p HDTV x264-DHD(1.49 GB)\r\n\r\n \r\nComplete name: NOVA.S44E04.Super.Tunnel.720p.HDTV.HEVC.2CH.x265.mkv\r\nFormat                                   : Matroska\r\nFormat version                           : Version 4 / Version 2\r\nFile size                                : 408 MiB\r\nDuration                                 : 52mn 51s\r\nOverall bit rate                         : 1 079 Kbps\r\nWriting application                      : Lavf57.25.100\r\n\r\nVideo\r\n\r\nID                                       : 1\r\nFormat                                   : V_MPEGH/ISO/HEVC\r\nCodec ID                                 : V_MPEGH/ISO/HEVC\r\nDuration                                 : 52mn 51s\r\nBit rate                                 : 865 Kbps\r\nWidth                                    : 1 280 pixels\r\nHeight                                   : 720 pixels\r\nDisplay aspect ratio                     : 16:9\r\nFrame rate                               : 25.000 fps\r\nBits/(Pixel*Frame)                       : 0.038\r\nStream size                              : 327 MiB (80%)\r\nWriting library                          : Lavc57.48.101 libx265\r\nDefault                                  : Yes\r\nForced                                   : No\r\nDURATION                                 : 00:52:51.331000000\r\n\r\nAudio\r\n\r\nID                                       : 2\r\nFormat                                   : AC-3\r\nFormat/Info                              : Audio Coding 3\r\nMode extension                           : CM (complete main)\r\nFormat settings, Endianness              : Big\r\nCodec ID                                 : A_AC3\r\nDuration                                 : 52mn 51s\r\nBit rate mode                            : Constant\r\nBit rate                                 : 192 Kbps\r\nChannel(s)                               : 2 channels\r\nChannel positions                        : Front: L R\r\nSampling rate                            : 48.0 KHz\r\nBit depth                                : 16 bits\r\nCompression mode                         : Lossy\r\nStream size                              : 72.6 MiB (18%)\r\nWriting library                          : Lavc57.24.102 ac3\r\nDefault                                  : Yes\r\nForced                                   : No\r\nDURATION                                 : 00:52:51.287000000\r\n\r\nText\r\n\r\nID                                       : 3\r\nFormat                                   : ASS\r\nCodec ID                                 : S_TEXT/ASS\r\nCompression mode                         : Lossless\r\nLanguage                                 : English","torrent":{"xt":"urn:btih:418f7c44668ae3e0cb412b31f667d0acc5a8e471","amp;dn":"NOVA+S44E04+Super+Tunnel+720p+HDTV+HEVC+2CH+x265","amp;tr":["udp%3A%2F%2Ftracker.leechers-paradise.org%3A6969","udp%3A%2F%2Fzer0day.ch%3A1337","udp%3A%2F%2Fopen.demonii.com%3A1337","udp%3A%2F%2Ftracker.coppersurfer.tk%3A6969","udp%3A%2F%2Fexodus.desync.com%3A6969"],"infoHash":"418f7c44668ae3e0cb412b31f667d0acc5a8e471","infoHashBuffer":{"type":"Buffer","data":[65,143,124,68,102,138,227,224,203,65,43,49,246,103,208,172,197,168,228,113]},"announce":[],"urlList":[]}}